<?xml version="1.0" encoding="UTF-8"?><svg xmlns="http://www.w3.org/2000/svg" xmlns:xlink="http://www.w3.org/1999/xlink" width="140" height="140"><defs><linearGradient x1="3.2%" y1="100%" x2="96.8%" y2="0%" id="c"><stop stop-color="#600BFB" offset="0%"/><stop stop-color="#6B54FB" offset="100%"/></linearGradient><filter x="-34%" y="-26%" width="168%" height="168%" filterUnits="objectBoundingBox" id="a"><feOffset dy="8" in="SourceAlpha" result="shadowOffsetOuter1"/><feGaussianBlur stdDeviation="10" in="shadowOffsetOuter1" result="shadowBlurOuter1"/><feColorMatrix values="0 0 0 0 0.137254902 0 0 0 0 0.0431372549 0 0 0 0 0.28627451 0 0 0 0.1 0" in="shadowBlurOuter1"/></filter><path d="M90 90c-14 13-66 13-80 0-13-14-13-66 0-80C24-3 76-3 90 10c13 14 13 66 0 80" id="b"/></defs><g fill="none" fill-rule="evenodd"><g transform="translate(20 12)"><use fill="#000" filter="url(#a)" xlink:href="#b"/><use fill="#FFF" xlink:href="#b"/></g><path d="M79 58l1 1 1 1v1l-1 1c-4 12-16 20-30 20s-25-9-30-21v-1l1-1c1-1 3-1 3 1 4 10 15 18 26 18h1c12 0 22-8 26-18l2-2zM51 19a23 23 0 0123 24v9c0 2-1 3-2 3h-3c-2 8-8 16-19 16s-18-9-19-18c-3-3-4-9-4-9v-1a23 23 0 0124-24zm-9 24c-3 2-6 3-10 3v2c0 10 6 21 18 21h1c9-1 13-8 16-15v1l-10-2-7-3-8-7zm14 19h1v1h-1c-4 3-9 1-11 0l1-1h10zm-9-26l-1 1v1l1 1 1 2 2 3 7 5a28 28 0 0012 3h4-1l-7-1h-1l-7-3-6-5-2-3v-1l-1-1v-1l-1-1zm-5 11c1 0 2 1 2 3l-2 2h-1a2 2 0 011-5zM28 19c3 0 5 2 6 5h-1l-5 8h-1c-3 0-6-3-6-6v-1c0-3 3-6 7-6zm44 0h1c3 0 6 3 6 7 0 3-3 6-6 6v-1l-7-8c1-2 4-4 6-4z" fill="url(#c)" transform="translate(20 12)"/><path d="M88 57h6v-4h-6l-2 2 2 2M91 62h3v-4h-3l-2 2 2 2" fill="#000" opacity=".1"/></g></svg>