<?xml version="1.0" encoding="UTF-8"?>
<svg width="200px" height="73px" viewBox="0 0 250 73" version="1.1" xmlns="http://www.w3.org/2000/svg" xmlns:xlink="http://www.w3.org/1999/xlink">
    <!-- Generator: sketchtool 63.1 (101010) - https://sketch.com -->
    <title>0919CE5D-D4F3-43F8-9D3B-4ABD4000D92F</title>
    <desc>Created with sketchtool.</desc>
    <defs>
        <linearGradient x1="33.7062676%" y1="77.2861224%" x2="70.561366%" y2="-16.665772%" id="linearGradient-1">
            <stop stop-color="#600BFB" offset="0%"></stop>
            <stop stop-color="#6B54FB" offset="100%"></stop>
        </linearGradient>
        <linearGradient x1="-58.5289852%" y1="406.198132%" x2="245.272191%" y2="-590.921407%" id="linearGradient-2">
            <stop stop-color="#600BFB" offset="0%"></stop>
            <stop stop-color="#6B54FB" offset="100%"></stop>
        </linearGradient>
        <linearGradient x1="30.8421056%" y1="63.6535465%" x2="148.173774%" y2="-32.1927635%" id="linearGradient-3">
            <stop stop-color="#600BFB" offset="0%"></stop>
            <stop stop-color="#6B54FB" offset="100%"></stop>
        </linearGradient>
        <linearGradient x1="36.3859273%" y1="98.4368519%" x2="65.7684905%" y2="25.5641739%" id="linearGradient-4">
            <stop stop-color="#600BFB" offset="0%"></stop>
            <stop stop-color="#6B54FB" offset="100%"></stop>
        </linearGradient>
        <linearGradient x1="55.0519834%" y1="37.2977362%" x2="39.3684327%" y2="57.3286041%" id="linearGradient-5">
            <stop stop-color="#600BFB" offset="0%"></stop>
            <stop stop-color="#6B54FB" offset="100%"></stop>
        </linearGradient>
        <linearGradient x1="-31.5631712%" y1="173.318128%" x2="66.8585593%" y2="6.79895899%" id="linearGradient-6">
            <stop stop-color="#600BFB" offset="0%"></stop>
            <stop stop-color="#6B54FB" offset="100%"></stop>
        </linearGradient>
        <linearGradient x1="-26.7089417%" y1="177.946026%" x2="71.5480897%" y2="11.3342436%" id="linearGradient-7">
            <stop stop-color="#600BFB" offset="0%"></stop>
            <stop stop-color="#6B54FB" offset="100%"></stop>
        </linearGradient>
    </defs>
    <g id="Page-1" stroke="none" stroke-width="1" fill="none" fill-rule="evenodd">
        <g id="Login" transform="translate(-715.000000, -200.000000)">
            <g id="hoory-logo" transform="translate(715.000000, 200.000000)">
                <g id="text" transform="translate(40.498445, 8.956386)" fill="#282430">
                    <path d="M20.3387823,46.0804367 L20.3387823,29.8253595 C20.3387823,26.734238 17.8551189,24.1562815 14.7869697,24.2181524 C13.0070177,24.2537383 11.6919245,24.8214953 10.7862926,25.9772286 C9.85015188,27.1721873 9.35036832,28.5555895 9.35036832,30.2536035 L9.35036832,46.0804367 C9.35036832,46.961188 8.64143839,47.6753325 7.76711823,47.6753325 L1.88091234,47.6753325 C1.00659219,47.6753325 0.297662256,46.961188 0.297662256,46.0804367 L0.297662256,1.59724119 C0.297662256,0.716489935 1.00659219,0.00234543494 1.88091234,0.00234543494 L7.76711823,0.00234543494 C8.64143839,0.00234543494 9.35036832,0.716489935 9.35036832,1.59724119 L9.35036832,20.065115 L9.41259037,20.065115 C10.6618486,18.367101 12.409686,17.1090582 14.0953014,16.5429188 C15.7809168,15.9771837 16.9675515,15.7883357 17.9663157,15.7883357 C21.775108,15.7883357 24.8344257,17.2348221 26.6444852,19.6247394 C28.4553476,21.951977 29.3914883,24.9080338 29.3914883,28.2413821 L29.3914883,46.0804367 C29.3914883,46.961188 28.6829598,47.6753325 27.8082382,47.6753325 L21.9220324,47.6753325 C21.0477122,47.6753325 20.3387823,46.961188 20.3387823,46.0804367" id="Fill-1"></path>
                    <path d="M44.8114771,32.0149847 C44.8114771,34.3418179 45.5605503,36.2286799 46.9960732,37.7382504 C48.4950224,39.2478208 50.3058848,40.0019995 52.4908823,40.0019995 C54.6136578,40.0019995 56.4241187,39.2478208 57.9222651,37.7382504 C59.4212143,36.291764 60.107664,34.3418179 60.107664,32.0149847 C60.107664,29.6877471 59.4212143,27.8008852 57.9222651,26.2913147 C56.4241187,24.7821486 54.6136578,24.0275656 52.4282588,24.0275656 C50.3058848,24.0275656 48.4950224,24.7821486 46.9960732,26.2913147 C45.5605503,27.8008852 44.8114771,29.6877471 44.8114771,32.0149847 M37.818923,23.7756335 C39.3170694,21.2599524 41.3772214,19.2477309 43.9997804,17.8008402 C46.621938,16.4170336 49.4315646,15.6624506 52.5531044,15.6624506 C55.612422,15.6624506 58.4846721,16.3543539 61.0446077,17.8008402 C63.6037404,19.1846468 65.6642938,21.1341885 67.163243,23.6498697 C68.6613894,26.1028711 69.4100612,28.8704844 69.4100612,31.9519006 C69.4100612,35.0337212 68.6613894,37.8013345 67.163243,40.3166113 C65.6020717,42.8953765 63.5415183,44.8449182 60.9815828,46.2283205 C58.3598266,47.6756156 55.4875765,48.3675189 52.4282588,48.3675189 C49.3063177,48.3675189 46.4970925,47.6756156 43.8749349,46.291809 C41.3149993,44.8449182 39.3170694,42.9584606 37.818923,40.4427795 C36.3203752,37.9266939 35.5086785,35.1590807 35.5086785,32.1407486 C35.5086785,29.0585235 36.3203752,26.2913147 37.818923,23.7756335" id="Fill-3"></path>
                    <path d="M83.2066967,32.0149847 C83.2066967,34.3418179 83.9561713,36.2286799 85.3920957,37.7382504 C86.8906435,39.2478208 88.7011044,40.0019995 90.8865034,40.0019995 C93.0088774,40.0019995 94.8197398,39.2478208 96.3182876,37.7382504 C97.8164339,36.291764 98.5028837,34.3418179 98.5028837,32.0149847 C98.5028837,29.6877471 97.8164339,27.8008852 96.3182876,26.2913147 C94.8197398,24.7821486 93.0088774,24.0275656 90.8242813,24.0275656 C88.7011044,24.0275656 86.8906435,24.7821486 85.3920957,26.2913147 C83.9561713,27.8008852 83.2066967,29.6877471 83.2066967,32.0149847 M76.2141426,23.7756335 C77.712289,21.2599524 79.7728424,19.2477309 82.3954015,17.8008402 C85.0175591,16.4170336 87.8271857,15.6624506 90.9487254,15.6624506 C94.0080431,15.6624506 96.8798917,16.3543539 99.4398273,17.8008402 C101.999361,19.1846468 104.059513,21.1341885 105.558463,23.6498697 C107.056609,26.1028711 107.805682,28.8704844 107.805682,31.9519006 C107.805682,35.0337212 107.056609,37.8013345 105.558463,40.3166113 C103.997291,42.8953765 101.937139,44.8449182 99.3772038,46.2283205 C96.7550462,47.6756156 93.883599,48.3675189 90.8242813,48.3675189 C87.7019387,48.3675189 84.8923121,47.6756156 82.2705559,46.291809 C79.7106204,44.8449182 77.712289,42.9584606 76.2141426,40.4427795 C74.7159963,37.9266939 73.9042996,35.1590807 73.9042996,32.1407486 C73.9042996,29.0585235 74.7159963,26.2913147 76.2141426,23.7756335" id="Fill-5"></path>
                    <path d="M133.402228,23.552332 C133.402228,24.4791831 132.623448,25.2119294 131.705774,25.1419707 C131.337258,25.1136637 130.947066,25.0966795 130.53078,25.0966795 C126.035137,25.0966795 123.163288,28.3038596 123.163288,33.9648499 L123.163288,46.0802345 C123.163288,46.9609858 122.454358,47.6755347 121.580038,47.6755347 L115.818276,47.6755347 C114.943956,47.6755347 114.235026,46.9609858 114.235026,46.0802345 L114.235026,18.0122529 C114.235026,17.1315016 114.943956,16.4169527 115.818276,16.4169527 L121.267322,16.4169527 C122.142044,16.4169527 122.850974,17.1315016 122.850974,18.0122529 L122.850974,20.9456641 L122.913196,20.9456641 C124.536589,17.5496361 127.533685,16.1031497 130.967539,16.1031497 C131.321201,16.1031497 131.675265,16.1270084 132.02973,16.1694689 C132.816939,16.2644995 133.402228,16.9531677 133.402228,17.7518287 L133.402228,23.552332 Z" id="Fill-7"></path>
                    <path d="M141.7786,60.8890681 L148.448402,44.3420246 L136.462429,18.6914585 C135.967864,17.6335864 136.734198,16.4171954 137.89474,16.4171954 L144.352586,16.4171954 C144.982032,16.4171954 145.551665,16.7928693 145.803765,17.3739711 L153.130712,34.2788956 L159.66764,17.4317982 C159.904887,16.8195588 160.490175,16.4171954 161.142102,16.4171954 L167.072465,16.4171954 C168.196878,16.4171954 168.962811,17.5644366 168.538899,18.6138165 L150.972209,62.0904969 C150.729744,62.6914136 150.150075,63.0840717 149.505776,63.0840717 L143.245435,63.0840717 C142.121825,63.0840717 141.355892,61.9380437 141.7786,60.8890681" id="Fill-9"></path>
                </g>
            </g>
        </g>
    </g>
</svg>